<svg id="Layer_1" data-name="Layer 1" xmlns="http://www.w3.org/2000/svg" viewBox="0 0 219 218.96">
  <g>
    <path d="M15.56,8.09a7.44,7.44,0,0,0-7.43,7.44V203.39a7.44,7.44,0,0,0,7.43,7.44H203.43a7.45,7.45,0,0,0,7.44-7.44V15.53a7.45,7.45,0,0,0-7.44-7.44ZM203.43,219H15.56A15.56,15.56,0,0,1,0,203.43V15.53A15.56,15.56,0,0,1,15.56,0H203.43A15.57,15.57,0,0,1,219,15.53V203.39A15.57,15.57,0,0,1,203.43,219Z" fill="#fff"/>
    <path d="M86.26,117.67l-5.11-17.4C79.69,95.41,78.23,89.33,77,84.46h-.23c-1.22,4.87-2.44,11.07-3.78,15.81l-4.86,17.4Zm-20.8,13.86-5.84,21H40.4l25.06-82H89.79l25.42,82H95.26l-6.32-21Z" fill="#fff"/>
    <path d="M159.87,116.09c0-4.5-1.94-12-10.45-12-7.79,0-10.95,7.06-11.44,12ZM138.1,128.73c.61,7.67,8.15,11.32,16.79,11.32a52.25,52.25,0,0,0,16.42-2.44l2.43,12.53a58.55,58.55,0,0,1-21.53,3.65c-20.19,0-31.74-11.67-31.74-30.29,0-15.08,9.36-31.74,30-31.74,19.22,0,26.52,15,26.52,29.68a43.47,43.47,0,0,1-.61,7.29Z" fill="#fff"/>
  </g>
</svg>
