<svg id="Layer_1" data-name="Layer 1" xmlns="http://www.w3.org/2000/svg" viewBox="0 0 219 218.96">
  <g>
    <path d="M15.54,8a7.44,7.44,0,0,0-7.43,7.44V203.34a7.43,7.43,0,0,0,7.43,7.44H203.41a7.45,7.45,0,0,0,7.44-7.44V15.48A7.46,7.46,0,0,0,203.41,8ZM203.41,218.93H15.54A15.56,15.56,0,0,1,0,203.38V15.48A15.57,15.57,0,0,1,15.54-.07H203.41A15.58,15.58,0,0,1,219,15.48V203.34a15.57,15.57,0,0,1-15.55,15.59Z"/>
    <path d="M86.24,117.62l-5.11-17.4C79.67,95.36,78.21,89.28,77,84.41h-.23c-1.22,4.87-2.44,11.07-3.78,15.81l-4.86,17.4Zm-20.8,13.86-5.84,21H40.38l25.06-82H89.77l25.42,82h-20l-6.32-21Z"/>
    <path d="M159.85,116c0-4.5-1.94-12-10.45-12-7.79,0-11,7.06-11.44,12Zm-21.77,12.64c.61,7.67,8.15,11.32,16.79,11.32a52,52,0,0,0,16.42-2.44l2.43,12.53a58.34,58.34,0,0,1-21.53,3.65c-20.19,0-31.74-11.67-31.74-30.29,0-15.08,9.36-31.74,30-31.74,19.22,0,26.52,15,26.52,29.68a43.3,43.3,0,0,1-.61,7.29Z"/>
  </g>
</svg>
