<svg id="Layer_1" data-name="Layer 1" xmlns="http://www.w3.org/2000/svg" viewBox="0 0 219 218.96">
  <g>
    <path d="M15.55,7.87a7.45,7.45,0,0,0-7.44,7.44V203.17a7.46,7.46,0,0,0,7.44,7.44H203.41a7.46,7.46,0,0,0,7.44-7.44V15.31a7.45,7.45,0,0,0-7.44-7.44ZM203.41,218.76H15.55A15.58,15.58,0,0,1,0,203.17H0V15.31A15.57,15.57,0,0,1,15.55-.24H203.41A15.56,15.56,0,0,1,219,15.3h0V203.17a15.58,15.58,0,0,1-15.55,15.59Z" fill="#fff"/>
    <path d="M101.21,117.45l-5.11-17.4c-1.46-4.86-2.92-10.94-4.1-15.81h-.24C90.5,89.11,89.29,95.31,88,100.05l-4.87,17.4Zm-20.8,13.86-5.84,21H55.35l25.06-82h24.33l25.42,82h-20l-6.33-21Z" fill="#fff"/>
    <path d="M139.77,152.36V92.88h18.49v59.48Zm19.1-76c0,5.11-3.9,9.25-10,9.25-5.85,0-9.74-4.14-9.61-9.25C139.13,71,143,67,149,67s9.73,4,9.85,9.36Z" fill="#fff"/>
  </g>
</svg>
