<svg id="Layer_1" data-name="Layer 1" xmlns="http://www.w3.org/2000/svg" viewBox="0 0 219 218.96">
  <g>
    <path d="M15.55,8.11a7.45,7.45,0,0,0-7.44,7.44V203.41a7.45,7.45,0,0,0,7.44,7.44H203.41a7.45,7.45,0,0,0,7.44-7.44V15.55a7.45,7.45,0,0,0-7.44-7.44ZM203.41,219H15.55A15.57,15.57,0,0,1,0,203.41H0V15.55A15.57,15.57,0,0,1,15.55,0H203.41A15.57,15.57,0,0,1,219,15.55h0V203.41A15.57,15.57,0,0,1,203.45,219Z"/>
    <path d="M101.21,117.69l-5.11-17.4c-1.46-4.86-2.92-10.94-4.1-15.81h-.24C90.5,89.35,89.29,95.55,88,100.29l-4.87,17.4Zm-20.8,13.86-5.84,21H55.35l25.06-82h24.33l25.42,82h-20l-6.33-21Z"/>
    <path d="M139.77,152.6V93.12h18.49V152.6Zm19.1-76c0,5.11-3.9,9.25-10,9.25-5.85,0-9.74-4.14-9.61-9.25-.13-5.35,3.76-9.36,9.73-9.36s9.73,4,9.85,9.36Z"/>
  </g>
</svg>
