<svg id="Layer_1" data-name="Layer 1" xmlns="http://www.w3.org/2000/svg" viewBox="0 0 219 218.96">
  <g>
    <path d="M15.56,8.09a7.43,7.43,0,0,0-7.42,7.44V203.39a7.43,7.43,0,0,0,7.42,7.44H203.43a7.45,7.45,0,0,0,7.44-7.44V15.53a7.45,7.45,0,0,0-7.44-7.44ZM203.43,219H15.56A15.55,15.55,0,0,1,0,203.43V15.53A15.55,15.55,0,0,1,15.56,0H203.43A15.55,15.55,0,0,1,219,15.53V203.39A15.56,15.56,0,0,1,203.44,219Z" fill="#fff"/>
    <path d="M78,108.91a28.11,28.11,0,0,0,6.2.49c9.85,0,15.93-5,15.93-13.38,0-7.55-5.22-12-14.46-12A31.75,31.75,0,0,0,78,84.7v24.21ZM59.62,71.69A150.73,150.73,0,0,1,84.72,70c11.43,0,19.58,2.19,25.06,6.57a24,24,0,0,1,8.76,19c0,8-2.68,14.84-7.55,19.46-6.32,6-15.69,8.64-26.64,8.64a46.11,46.11,0,0,1-6.32-.37v29.3H59.62Z" fill="#fff"/>
    <path d="M128.59,112.68c0-8.76-.24-14.47-.48-19.58H144l.61,10.94h.49c3-8.63,10.33-12.28,16.05-12.28a19.52,19.52,0,0,1,3.9.24v17.4a26.16,26.16,0,0,0-5-.49c-6.81,0-11.44,3.65-12.65,9.37a22,22,0,0,0-.37,4.13v30.17H128.59Z" fill="#fff"/>
  </g>
</svg>