<svg id="Layer_1" data-name="Layer 1" xmlns="http://www.w3.org/2000/svg" viewBox="0 0 219 218.96">
  <g>
    <path d="M15.55,8a7.44,7.44,0,0,0-7.43,7.44V203.34a7.43,7.43,0,0,0,7.43,7.44H203.42a7.45,7.45,0,0,0,7.44-7.44V15.48A7.46,7.46,0,0,0,203.42,8ZM203.42,218.93H15.55A15.56,15.56,0,0,1,0,203.38V15.48A15.57,15.57,0,0,1,15.55-.07H203.42A15.57,15.57,0,0,1,219,15.48V203.34a15.55,15.55,0,0,1-15.53,15.59Z"/>
    <path d="M78,108.86a27.42,27.42,0,0,0,6.2.49c9.85,0,15.93-5,15.93-13.38,0-7.55-5.23-12-14.47-12a32.31,32.31,0,0,0-7.66.73v24.21ZM59.61,71.64a151.65,151.65,0,0,1,25.1-1.71c11.43,0,19.58,2.19,25.06,6.57a24,24,0,0,1,8.76,19c0,8-2.68,14.84-7.55,19.46-6.32,6-15.69,8.64-26.64,8.64a46.11,46.11,0,0,1-6.32-.37v29.3H59.61Z"/>
    <path d="M128.58,112.63c0-8.76-.24-14.47-.48-19.58H144l.61,10.94h.49c3-8.63,10.33-12.28,16.05-12.28a19.61,19.61,0,0,1,3.9.24v17.4a27.07,27.07,0,0,0-5-.49c-6.81,0-11.44,3.65-12.65,9.37a21.29,21.29,0,0,0-.37,4.13v30.17H128.58Z"/>
  </g>
</svg>
