<svg id="Layer_1" data-name="Layer 1" xmlns="http://www.w3.org/2000/svg" viewBox="0 0 219 218.96">
  <g>
    <path d="M15.57,8.09a7.45,7.45,0,0,0-7.44,7.44V203.39a7.45,7.45,0,0,0,7.44,7.44H203.43a7.45,7.45,0,0,0,7.44-7.44V15.53a7.45,7.45,0,0,0-7.44-7.44ZM203.42,219H15.57A15.57,15.57,0,0,1,0,203.43V15.53A15.57,15.57,0,0,1,15.57,0H203.43A15.57,15.57,0,0,1,219,15.53V203.39A15.57,15.57,0,0,1,203.43,219Z" fill="#fff"/>
    <path d="M75.43,108.91a28,28,0,0,0,6.2.49c9.86,0,15.94-5,15.94-13.38,0-7.55-5.23-12-14.47-12a31.88,31.88,0,0,0-7.67.73v24.21ZM57.06,71.69A150.1,150.1,0,0,1,82.12,70c11.43,0,19.58,2.19,25.06,6.57a24,24,0,0,1,8.76,19c0,8-2.68,14.84-7.55,19.46-6.32,6-15.69,8.64-26.63,8.64a47.8,47.8,0,0,1-6.33-.37v29.3H57.06V71.69Z" fill="#fff"/>
    <path d="M124.45,136.4a36.23,36.23,0,0,0,15.94,4.5c5.6,0,7.9-2,7.9-5s-1.82-4.5-8.75-6.81c-12.29-4.13-17-10.82-16.91-17.88,0-11.07,9.49-19.46,24.2-19.46,6.94,0,13.14,1.58,16.79,3.4L160.34,108a29.36,29.36,0,0,0-12.9-3.4c-4.49,0-7,1.83-7,4.87,0,2.8,2.31,4.25,9.61,6.81,11.31,3.89,16,9.61,16.18,18.36,0,11.07-8.76,19.22-25.79,19.22-7.78,0-14.72-1.7-19.22-4.13l3.28-13.26Z" fill="#fff"/>
  </g>
</svg>
