<svg width="1077" height="1050" viewBox="0 0 1077 1050" fill="none" xmlns="http://www.w3.org/2000/svg">
<g clip-path="url(#clip0_12_38)">
<path d="M1.02515 880.811C1.02515 644.942 1.02515 409.073 1.38595 172.597C2.18234 170.581 2.82366 169.201 3.02182 167.761C5.12186 152.494 8.66509 137.607 14.2572 123.216C22.3692 102.339 33.7099 83.47 48.4332 66.5531C63.8474 48.8424 81.8852 34.5705 102.55 23.4818C122.158 12.9604 142.992 6.31818 164.937 2.94075C166.075 2.76561 167.074 1.68463 168.137 1.02539C415.929 1.02539 663.72 1.02539 912.103 1.38864C914.1 2.2185 915.472 2.89676 916.915 3.1202C941.656 6.95148 964.777 15.282 986.285 28.076C1004.78 39.0761 1020.85 52.9154 1034.66 69.4151C1046.34 83.3762 1055.83 98.69 1063.11 115.366C1069.43 129.817 1073.84 144.831 1076.48 160.381C1076.7 161.687 1077.83 162.839 1078.54 164.062C1078.54 405.4 1078.54 646.737 1078.17 888.647C1077.33 890.446 1076.71 891.636 1076.39 892.902C1074.21 901.67 1072.65 910.637 1069.85 919.2C1059.54 950.763 1042.37 978.005 1017.91 1000.68C1000.8 1016.54 981.401 1028.59 959.972 1037.58C947.316 1042.89 934.112 1046.22 920.692 1048.83C919.12 1049.14 917.098 1048.73 916.552 1051.03C666.026 1051.03 415.501 1051.03 164.403 1050.66C162.606 1049.81 161.417 1049.19 160.152 1048.88C151.384 1046.69 142.417 1045.14 133.853 1042.34C102.281 1032.03 75.0612 1014.81 52.3763 990.37C36.62 973.392 24.5988 954.162 15.6919 932.877C9.19385 917.348 5.21246 901.163 3.03298 884.505C2.83822 883.017 3.03227 881.315 1.02515 880.811ZM274.709 334.688C239.504 435.591 204.299 536.494 169.093 637.396C158.351 668.182 147.601 698.966 136.859 729.753C133.292 739.975 134.392 741.591 144.913 741.594C164.392 741.598 183.871 741.596 203.35 741.595C210.526 741.595 217.703 741.655 224.879 741.565C229.63 741.505 231.629 739.984 233.293 735.554C233.592 734.757 233.785 733.919 234.046 733.107C244.524 700.613 255.002 668.119 265.486 635.626C266.108 633.698 266.775 631.783 267.462 629.738C323.54 629.738 379.334 629.738 435.173 629.738C435.806 631.549 436.375 633.148 436.925 634.753C448.039 667.216 459.147 699.681 470.268 732.142C472.663 739.133 473.742 739.912 480.912 739.914C510.13 739.919 539.349 739.916 568.567 739.91C569.933 739.909 571.312 739.959 572.662 739.793C576.441 739.328 577.724 737.595 576.877 733.83C576.392 731.676 575.549 729.598 574.801 727.509C527.798 596.189 480.788 464.872 433.779 333.555C426.99 314.588 420.218 295.616 413.404 276.658C411.788 272.161 411.051 271.686 406.355 271.506C405.502 271.473 404.646 271.492 403.792 271.492C367.568 271.491 331.344 271.491 295.121 271.491C294.266 271.491 293.41 271.46 292.558 271.505C288.594 271.716 287.366 272.861 287.166 276.738C287.025 279.467 287.282 282.233 286.95 284.932C286.016 292.544 285.514 300.294 283.641 307.684C281.383 316.592 277.89 325.187 274.709 334.688ZM892.992 656.165C892.635 654.501 892.277 652.836 891.933 651.235C885.221 653.424 879.314 655.693 873.228 657.272C852.515 662.649 831.441 665.617 810.065 666.905C786.918 668.3 764.846 664.379 743.631 655.211C735.706 651.787 728.668 647.028 722.51 640.975C708.758 627.456 702.242 610.49 699.186 591.889C699.062 591.132 699.29 590.316 699.387 589.122C701.73 589.122 703.749 589.122 705.769 589.122C749.502 589.122 793.235 589.089 836.968 589.157C843.794 589.168 850.621 589.625 857.447 589.905C864.098 590.178 870.761 590.905 877.395 590.691C889.164 590.312 900.913 589.35 912.673 588.675C918.403 588.345 920.345 586.816 920.874 581.09C921.818 570.891 922.645 560.676 923.233 550.45C924.578 527.066 922.463 504.049 915.366 481.615C908.208 458.985 897.291 438.388 880.807 421.223C856.616 396.032 825.957 384.359 791.901 380.437C776.728 378.689 761.519 379.276 746.365 380.619C727.166 382.322 708.684 386.748 691.517 395.953C656.926 414.5 631.841 442.071 616.287 477.757C592.307 532.775 590.523 589.218 610.644 645.611C626.165 689.114 655.876 720.242 699.002 737.808C722.076 747.207 746.377 750.565 771.091 751.44C796.96 752.355 822.626 750.552 848.039 745.445C861.303 742.779 874.163 738.876 886.673 733.72C890.842 732.001 892.89 729.168 892.963 724.761C892.986 723.395 893 722.028 893 720.661C893 699.474 892.998 678.288 892.992 656.165Z" fill="white"/>
<path d="M328.087 429.647C336.071 404.436 343.778 379.572 348.919 353.984C349.303 353.966 349.688 353.947 350.072 353.929C356.097 374.586 361.952 395.295 368.194 415.887C374.479 436.624 381.111 457.258 387.66 477.914C394.19 498.507 400.806 519.072 407.517 540.065C369.287 540.065 331.915 540.065 293.805 540.065C297.863 527.673 301.957 515.65 305.727 503.525C309.525 491.308 312.932 478.97 316.635 466.722C320.34 454.473 324.199 442.27 328.087 429.647Z" fill="white"/>
<path d="M806.751 523.616C770.639 523.618 735.027 523.618 698.762 523.618C699.322 520.126 699.624 517.276 700.251 514.5C703.459 500.303 708.865 487.139 719.19 476.529C731.569 463.809 746.693 457.31 764.495 457.164C771.845 457.104 779.135 457.319 786.3 459.363C811.857 466.653 829.914 490.767 829.318 516.997C829.299 517.835 829.169 518.67 829.084 519.583C822.365 524.273 814.634 523.03 806.751 523.616Z" fill="white"/>
</g>
<defs>
<clipPath id="clip0_12_38">
<rect width="1077" height="1050" fill="white"/>
</clipPath>
</defs>
</svg>
