<svg width="1226" height="998" viewBox="0 0 1226 998" fill="none" xmlns="http://www.w3.org/2000/svg">
<path d="M1125.27 600.775C1119.22 558.22 1104.49 517.863 1081.46 480.839C1061.37 448.527 1035.6 419.789 1004.84 395.363L1004.92 395.287L681.839 147.102C681.606 146.897 681.363 146.703 681.111 146.523C670.369 138.293 655.826 133.765 640.176 133.765C624.505 133.765 609.394 138.303 597.646 146.549C585.015 155.374 577.795 167.083 577.29 179.547C576.828 191.176 582.375 202.365 592.949 211.087C613.742 227.496 634.489 244.263 655.264 261.049C675.425 277.347 696.2 294.132 716.875 310.473L321.154 310.204C275.899 310.204 245.084 331.459 238.745 367.043C235.96 382.629 240.875 399.767 251.863 412.892C263.52 426.806 280.445 434.481 299.517 434.481L329.685 434.502C371.36 434.502 413.218 434.399 455.02 434.298L494.884 434.205L135.734 699.957L134.308 701C114.247 716.379 101.113 737.94 98.2799 760.15C96.132 776.977 100.057 792.354 109.634 804.634C121.049 819.274 138.872 827.327 159.822 827.327C180.404 827.327 201.405 819.526 218.983 805.324L412.93 646.576C412.101 654.328 411.095 665.7 411.209 673.954C411.427 687.023 415.622 713.246 422.263 734.535C435.986 778.286 459.1 818.316 490.962 853.47C524.114 890.045 564.49 919.045 610.961 939.646C660.09 961.379 712.903 972.41 767.94 972.41H768.45C823.662 972.277 876.643 961.07 925.931 939.089C972.479 918.244 1012.84 889.127 1045.86 852.559C1077.68 817.225 1100.77 777.128 1114.46 733.413C1121.24 711.773 1125.58 689.445 1127.4 666.842C1129.09 644.997 1128.37 622.768 1125.27 600.775ZM771.963 810.474C650.671 810.474 552.312 722.472 552.312 613.911C552.312 505.361 650.673 417.36 771.963 417.36C893.257 417.36 991.606 505.361 991.606 613.911C991.61 722.472 893.257 810.474 771.963 810.474ZM898.632 596.638C900.421 629.039 887.481 659.125 864.758 681.396C841.643 704.084 808.661 718.335 771.778 718.335C734.911 718.335 701.922 704.084 678.799 681.396C656.086 659.125 643.173 629.043 644.952 596.664C646.694 565.191 662.044 537.409 685.165 517.738C707.9 498.396 738.428 486.596 771.776 486.596C805.127 486.596 835.647 498.4 858.385 517.738C881.517 537.409 896.871 565.171 898.632 596.638Z" fill="white"/>
</svg>
