<svg width="1087" height="1060" viewBox="0 0 1087 1060" fill="none" xmlns="http://www.w3.org/2000/svg">
<g clip-path="url(#clip0_11_24)">
<path d="M1.03418 896.605C1.03418 653.207 1.03418 409.809 1.38169 165.781C2.73263 161.051 3.79259 156.964 4.73069 152.85C13.2702 115.391 30.6714 82.9301 58.2712 55.9C86.3735 28.3778 119.609 11.1043 158.183 3.82611C160.701 3.35094 163.052 1.98546 165.48 1.03412C417.867 1.03412 670.254 1.03412 923.27 1.38159C928.002 2.72389 932.093 3.76364 936.206 4.70653C973.647 13.2892 1006.13 30.6626 1033.16 58.2612C1060.69 86.3631 1077.96 119.598 1085.24 158.167C1085.72 160.685 1087.08 163.035 1088.03 165.463C1088.03 408.861 1088.03 652.26 1087.69 896.287C1086.83 898.317 1086.11 899.678 1085.86 901.122C1079.64 936.662 1065.01 968.379 1041.18 995.396C1011.83 1028.68 975.286 1049.97 931.394 1058.16C928.707 1058.66 926.186 1060.05 923.588 1061.03C671.201 1061.03 418.814 1061.03 165.798 1060.69C163.939 1059.86 162.739 1059.27 161.477 1058.9C146.346 1054.45 130.677 1051.31 116.182 1045.33C87.9495 1033.67 64.3464 1015.19 44.8183 991.611C23.543 965.924 9.83638 936.729 3.82371 903.901C3.36256 901.383 1.98552 899.033 1.03418 896.605ZM245.584 739.674C245.621 750.017 245.944 750.342 256.393 750.343C282.076 750.346 307.759 750.347 333.442 750.342C342.993 750.34 343.902 749.442 343.902 740.129C343.901 695.318 343.901 650.507 343.901 605.696C343.901 603.519 343.901 601.341 343.901 598.897C346.257 598.793 347.945 598.622 349.629 598.66C360.826 598.917 372.023 599.469 383.219 599.458C415.369 599.428 447.272 597.104 478.167 587.325C520.176 574.029 552.774 549 572.299 508.982C587.383 478.066 590.629 444.894 586.479 411.122C579.883 357.441 552.613 317.669 504.124 293.187C472.105 277.022 437.562 270.872 402.063 270.974C353.468 271.113 304.876 272.378 256.282 273.142C245.588 273.31 245.584 273.272 245.584 284.212C245.584 435.708 245.584 587.204 245.584 739.674ZM875.973 397.544C873.719 396.695 871.501 395.728 869.205 395.015C826.635 381.798 783.235 379.864 739.424 386.409C712.558 390.423 688.822 401.613 668.939 420.484C632.376 455.184 624.083 520.291 662.349 562.146C677.083 578.262 695.13 589.524 714.473 598.683C732.175 607.065 750.704 613.686 768.564 621.757C777.117 625.623 785.785 630.054 792.958 635.976C807.227 647.756 803.96 666.031 786.47 672.017C777.188 675.194 766.995 676.858 757.164 677.084C717.113 678.006 679.302 668.971 644.174 649.393C638.527 646.245 636.456 647.391 636.438 653.988C636.367 679.322 636.441 704.657 636.37 729.991C636.356 734.916 638.491 738.215 642.949 740.048C648.356 742.272 653.685 744.778 659.249 746.519C702.208 759.969 746.062 763.157 790.503 756.619C814.592 753.075 837.123 745.096 857.213 730.646C911.46 691.63 919.653 597.562 849.205 558.025C834.97 550.036 820.353 542.65 805.534 535.801C788.687 528.015 771.264 521.476 754.414 513.696C748.452 510.944 742.772 506.8 738.126 502.133C726.615 490.569 731.165 472.952 746.753 468C752.61 466.14 758.831 464.728 764.941 464.482C801.077 463.027 836.003 468.334 868.847 484.335C870.223 485.006 871.695 485.67 873.186 485.877C878.516 486.617 881.066 484.488 881.079 479.097C881.139 455.314 881.133 431.53 881.069 407.747C881.059 403.91 880.602 400.089 875.973 397.544Z" fill="white"/>
<path d="M484.339 406.221C491.219 425.097 491.006 443.878 485.356 462.402C478.614 484.51 462.133 497.644 441.068 504.383C427.264 508.799 412.677 511.768 398.241 512.955C380.645 514.401 362.838 513.299 344.75 513.299C344.75 462.185 344.75 411.644 344.75 361.143C345.161 360.965 345.469 360.718 345.779 360.714C376.173 360.279 406.738 356.611 436.674 365.189C458.674 371.494 475.713 383.692 484.339 406.221Z" fill="white"/>
</g>
<defs>
<clipPath id="clip0_11_24">
<rect width="1087" height="1060" fill="white"/>
</clipPath>
</defs>
</svg>
