<svg width="1089" height="1062" viewBox="0 0 1089 1062" fill="none" xmlns="http://www.w3.org/2000/svg">
<g clip-path="url(#clip0_11_14)">
<path d="M1.03662 890.877C1.03662 652.313 1.03662 413.748 1.40144 174.569C2.20666 172.53 2.85508 171.135 3.05544 169.678C5.17882 154.237 8.76157 139.18 14.416 124.624C22.6184 103.508 34.0854 84.424 48.9728 67.3137C64.5587 49.4005 82.7975 34.9655 103.693 23.7501C123.519 13.1084 144.585 6.39029 166.775 2.97428C167.925 2.79714 168.935 1.70386 170.01 1.03711C420.563 1.03711 671.116 1.03711 922.266 1.40452C924.284 2.24381 925.672 2.92976 927.131 3.15572C952.148 7.03063 975.526 15.4567 997.274 28.3969C1015.97 39.5227 1032.23 53.5199 1046.19 70.2082C1058 84.329 1067.59 99.8179 1074.96 116.684C1081.35 131.3 1085.8 146.486 1088.47 162.214C1088.7 163.535 1089.84 164.7 1090.55 165.938C1090.55 410.033 1090.55 654.128 1090.18 898.803C1089.33 900.622 1088.7 901.826 1088.39 903.106C1086.18 911.975 1084.6 921.044 1081.78 929.705C1071.34 961.63 1053.99 989.182 1029.25 1012.11C1011.95 1028.16 992.336 1040.34 970.668 1049.44C957.871 1054.81 944.52 1058.18 930.951 1060.82C929.361 1061.13 927.317 1060.71 926.764 1063.04C673.447 1063.04 420.13 1063.04 166.235 1062.67C164.418 1061.81 163.216 1061.18 161.937 1060.86C153.071 1058.66 144.004 1057.08 135.345 1054.25C103.421 1043.82 75.8974 1026.41 52.9599 1001.69C37.0281 984.517 24.8729 965.067 15.8667 943.538C9.29625 927.832 5.27047 911.462 3.06676 894.614C2.86983 893.109 3.06602 891.387 1.03662 890.877ZM603.286 442.242C603.952 426.11 602.789 410.147 599.182 394.37C589.812 353.38 567.477 321.683 531.549 299.715C512.016 287.772 490.72 280.414 468.393 275.927C449.03 272.036 429.416 270.286 409.684 270.577C368.233 271.187 326.787 272.071 285.338 272.831C278.948 272.948 272.554 272.919 266.167 273.115C261.828 273.247 260.646 274.489 260.397 278.711C260.296 280.433 260.366 282.166 260.366 283.894C260.365 435.803 260.365 587.711 260.366 739.62C260.366 741.002 260.337 742.386 260.375 743.767C260.534 749.668 261.827 750.917 267.856 750.99C270.101 751.018 272.347 750.998 274.593 750.998C299.468 750.998 324.343 751 349.218 750.996C358.093 750.994 358.843 750.219 358.845 741.132C358.845 740.613 358.845 740.095 358.845 739.576C358.845 694.989 358.845 650.401 358.845 605.814C358.845 603.785 358.845 601.755 358.845 599.288C364.522 599.288 369.655 599.113 374.773 599.319C395.33 600.144 415.868 600.158 436.389 598.476C457.982 596.708 479.201 592.97 499.666 585.736C536.392 572.755 565.292 550.029 584.491 515.826C597.102 493.362 601.994 468.736 603.286 442.242ZM770.083 552.261C770.083 541.025 770.222 529.787 770 518.556C769.932 515.104 771.059 512.716 773.514 510.462C779.298 505.15 785.716 500.825 792.829 497.569C810.076 489.673 828.207 484.672 846.977 482.416C857.92 481.101 869.013 480.989 880.044 480.475C886.331 480.182 887.464 479.287 887.469 473.299C887.493 444.78 887.498 416.26 887.462 387.74C887.455 381.922 885.821 380.389 880.051 380.365C867.54 380.313 855.234 381.935 843.207 385.337C813.853 393.639 789.315 409.776 768.377 431.704C767.127 433.013 765.832 434.28 763.887 436.246C763.535 431.293 763.546 427.327 762.921 423.463C761.435 414.279 760.032 405.051 757.85 396.021C756.412 390.073 752.848 387.974 746.733 387.962C721.163 387.913 695.593 387.922 670.023 387.941C665.39 387.944 664.211 389.155 664.438 393.849C664.647 398.161 665.288 402.456 665.415 406.768C666.156 431.817 667.314 456.867 667.387 481.919C667.639 568.342 667.5 654.766 667.513 741.19C667.513 742.918 667.413 744.661 667.598 746.371C667.93 749.436 669.867 751.422 672.891 751.842C674.249 752.031 675.65 751.935 677.032 751.935C704.502 751.939 731.973 751.939 759.443 751.936C769.638 751.936 770.082 751.481 770.082 741.011C770.084 678.44 770.083 615.869 770.083 552.261Z" fill="white"/>
<path d="M465.826 370.799C488.604 381.74 500.687 399.852 503.969 424.219C505.462 435.303 504.634 446.305 502.402 457.182C498.187 477.722 484.988 491.203 467.223 500.809C457.105 506.28 445.969 508.888 434.815 511.221C423.978 513.488 412.995 514.6 401.906 514.528C390.857 514.457 379.807 514.455 368.759 514.322C365.848 514.287 362.941 513.877 359.76 513.618C359.76 462.768 359.76 412.232 359.76 361.551C360.503 361.329 361.139 360.975 361.778 360.971C381.796 360.819 401.818 360.393 421.83 360.679C436.989 360.896 451.528 364.668 465.826 370.799Z" fill="white"/>
</g>
<defs>
<clipPath id="clip0_11_14">
<rect width="1089" height="1062" fill="white"/>
</clipPath>
</defs>
</svg>
