<svg id="Layer_1" data-name="Layer 1" xmlns="http://www.w3.org/2000/svg" viewBox="0 0 392.13 121.29"><defs><style>.cls-1{fill:#fefbfb;}.cls-2{fill:#fff;}.cls-3{fill:none;stroke:#fff;stroke-miterlimit:10;stroke-width:11px;}</style></defs><path class="cls-1" d="M179.45,55.35l-19.6,0L159.9.06h19.75A29.44,29.44,0,0,1,194,3.39a22.55,22.55,0,0,1,9.26,9.49,31.42,31.42,0,0,1,3.24,14.8,31.59,31.59,0,0,1-3.26,14.84A22.58,22.58,0,0,1,193.93,52,29.76,29.76,0,0,1,179.45,55.35Zm-7.9-10H179a18.61,18.61,0,0,0,8.73-1.84,11.8,11.8,0,0,0,5.35-5.74,24.19,24.19,0,0,0,1.8-10.08,24,24,0,0,0-1.78-10,11.76,11.76,0,0,0-5.33-5.72A18.69,18.69,0,0,0,179,10.09h-7.44Z"/><path class="cls-1" d="M211.11,55.37l0-41.45h11.15v7.24h.43a10.8,10.8,0,0,1,3.81-5.84,10.1,10.1,0,0,1,6.16-2,17.75,17.75,0,0,1,1.86.11,12.32,12.32,0,0,1,1.76.3V24a15.76,15.76,0,0,0-2.24-.44,21.38,21.38,0,0,0-2.62-.19,9.19,9.19,0,0,0-4.52,1.09,8.09,8.09,0,0,0-3.13,3,8.56,8.56,0,0,0-1.15,4.48l0,23.45Z"/><path class="cls-1" d="M255.32,56.21a21.9,21.9,0,0,1-11-2.61,17.62,17.62,0,0,1-7.08-7.4,24.43,24.43,0,0,1-2.48-11.35,24.45,24.45,0,0,1,2.49-11.23,18.38,18.38,0,0,1,7-7.52,20.36,20.36,0,0,1,10.63-2.69,22,22,0,0,1,7.65,1.31,17.32,17.32,0,0,1,6.2,3.94,17.83,17.83,0,0,1,4.14,6.57,26.26,26.26,0,0,1,1.48,9.24v3.16l-35,0V30.48l24.19,0a8.8,8.8,0,0,0-1.08-4.4,7.83,7.83,0,0,0-3-3,8.69,8.69,0,0,0-4.41-1.1,8.85,8.85,0,0,0-4.63,1.2,8.66,8.66,0,0,0-3.15,3.21,9.23,9.23,0,0,0-1.16,4.46v6.78A11.5,11.5,0,0,0,247.28,43a8.15,8.15,0,0,0,3.25,3.45,9.79,9.79,0,0,0,5,1.22,11,11,0,0,0,3.51-.54,7.08,7.08,0,0,0,2.72-1.61,6.9,6.9,0,0,0,1.73-2.65l10.64.71a14.55,14.55,0,0,1-3.32,6.68,16.49,16.49,0,0,1-6.42,4.42A24,24,0,0,1,255.32,56.21Z"/><path class="cls-1" d="M289.87,56.21a17.09,17.09,0,0,1-7.07-1.39,11.13,11.13,0,0,1-4.89-4.14,12.17,12.17,0,0,1-1.79-6.84,12,12,0,0,1,1.27-5.8,10.32,10.32,0,0,1,3.46-3.78,16.72,16.72,0,0,1,5-2.15,36.11,36.11,0,0,1,5.87-1q3.62-.37,5.83-.71a8.16,8.16,0,0,0,3.21-1,2.25,2.25,0,0,0,1-2v-.16a5,5,0,0,0-1.6-4,6.73,6.73,0,0,0-4.55-1.41,8.17,8.17,0,0,0-4.94,1.36,6.46,6.46,0,0,0-2.43,3.41l-10.63-.87a14.49,14.49,0,0,1,3.19-6.54,15.47,15.47,0,0,1,6.14-4.26,23.48,23.48,0,0,1,8.73-1.49,26.18,26.18,0,0,1,6.63.82,17.41,17.41,0,0,1,5.64,2.51,12.27,12.27,0,0,1,3.89,4.36,13.16,13.16,0,0,1,1.43,6.36l0,28h-10.9V49.69H302a11.47,11.47,0,0,1-2.68,3.41,12,12,0,0,1-4,2.29A16.36,16.36,0,0,1,289.87,56.21Zm3.3-7.93a9.48,9.48,0,0,0,4.48-1,7.71,7.71,0,0,0,3.05-2.73,7.12,7.12,0,0,0,1.11-3.92v-4.4a5.7,5.7,0,0,1-1.47.64,20.28,20.28,0,0,1-2.1.51c-.77.15-1.54.28-2.32.4l-2.1.31a14.46,14.46,0,0,0-3.54.94,5.68,5.68,0,0,0-2.35,1.74,4.31,4.31,0,0,0-.84,2.71,4.13,4.13,0,0,0,1.71,3.58A7.32,7.32,0,0,0,293.17,48.28Z"/><path class="cls-1" d="M329.89.19l0,55.27h-11.5l0-55.27Z"/><path class="cls-1" d="M189.82,81A6.85,6.85,0,0,0,187,75.9a11,11,0,0,0-6.66-1.81,12.92,12.92,0,0,0-4.83.79,6.71,6.71,0,0,0-3,2.2,5.21,5.21,0,0,0-1,3.18,4.5,4.5,0,0,0,.64,2.59,6.18,6.18,0,0,0,1.9,1.91,13.78,13.78,0,0,0,2.8,1.38,28.9,28.9,0,0,0,3.4,1l5,1.2a35.16,35.16,0,0,1,6.64,2.16,20.23,20.23,0,0,1,5.23,3.32,14.05,14.05,0,0,1,3.44,4.65,15,15,0,0,1,1.25,6.13,15.3,15.3,0,0,1-2.59,8.78,16.46,16.46,0,0,1-7.34,5.74,29.41,29.41,0,0,1-11.54,2,30.27,30.27,0,0,1-11.65-2.06,16.93,16.93,0,0,1-7.71-6.09A18,18,0,0,1,158,103h11.31a8.24,8.24,0,0,0,1.6,4.62,8.54,8.54,0,0,0,3.8,2.79,14.83,14.83,0,0,0,5.41.93,14,14,0,0,0,5.17-.86,7.88,7.88,0,0,0,3.42-2.4,5.52,5.52,0,0,0,1.21-3.53,4.61,4.61,0,0,0-1.09-3.13,8.6,8.6,0,0,0-3.18-2.17,34.1,34.1,0,0,0-5.11-1.62l-6-1.51a25.34,25.34,0,0,1-11-5.33,12.35,12.35,0,0,1-4-9.75,14.46,14.46,0,0,1,2.69-8.76,17.91,17.91,0,0,1,7.47-5.85,26.15,26.15,0,0,1,10.8-2.1,25.52,25.52,0,0,1,10.75,2.11,17,17,0,0,1,7.16,5.86A15.49,15.49,0,0,1,201,81Z"/><path class="cls-1" d="M227.64,78.93v8.63h-25V78.91ZM208.35,69h11.49l0,38.65a5.1,5.1,0,0,0,.49,2.47,2.71,2.71,0,0,0,1.36,1.23,5.55,5.55,0,0,0,2,.35,8.88,8.88,0,0,0,1.62-.15l1.24-.23,1.8,8.56q-.87.27-2.43.63a21,21,0,0,1-3.8.45,17.44,17.44,0,0,1-7.28-1.12,10.16,10.16,0,0,1-4.84-3.94,12,12,0,0,1-1.69-6.75Z"/><path class="cls-1" d="M257.88,102.76V79h11.5l0,41.45h-11v-7.53h-.43a12.29,12.29,0,0,1-4.66,5.85,13.8,13.8,0,0,1-7.93,2.21A14,14,0,0,1,238,119a12.94,12.94,0,0,1-4.92-5.37,18.49,18.49,0,0,1-1.79-8.34l0-26.4h11.5l0,24.34a8.38,8.38,0,0,0,2,5.81,6.69,6.69,0,0,0,5.2,2.13,8.05,8.05,0,0,0,3.89-1,7.42,7.42,0,0,0,2.93-2.85A8.84,8.84,0,0,0,257.88,102.76Z"/><path class="cls-1" d="M290,121.11a15.6,15.6,0,0,1-8.54-2.45,16.68,16.68,0,0,1-6-7.21,27.65,27.65,0,0,1-2.22-11.71,27.13,27.13,0,0,1,2.31-11.86,16.56,16.56,0,0,1,6.11-7.09A15.61,15.61,0,0,1,290,78.44a12.74,12.74,0,0,1,5.81,1.18,11.48,11.48,0,0,1,3.78,2.91A15.06,15.06,0,0,1,301.8,86h.36V65.17h11.47l0,55.27H302.26V113.8h-.49a14.71,14.71,0,0,1-2.28,3.41,11.28,11.28,0,0,1-3.81,2.79A13.13,13.13,0,0,1,290,121.11Zm3.65-9.15a7.39,7.39,0,0,0,4.71-1.52,9.67,9.67,0,0,0,3-4.28,20.62,20.62,0,0,0,0-12.87,9.22,9.22,0,0,0-3-4.21,8.23,8.23,0,0,0-9.5,0A9.45,9.45,0,0,0,286,93.38a20.47,20.47,0,0,0,0,12.7,9.51,9.51,0,0,0,2.94,4.32A7.31,7.31,0,0,0,293.66,112Z"/><path class="cls-1" d="M325,73.66A6.2,6.2,0,0,1,320.64,72a5.37,5.37,0,0,1-1.81-4.1,5.43,5.43,0,0,1,1.83-4.11,6.48,6.48,0,0,1,8.76,0,5.38,5.38,0,0,1,1.82,4.1A5.46,5.46,0,0,1,329.42,72,6.2,6.2,0,0,1,325,73.66Zm-5.81,46.79,0-41.45h11.5l0,41.45Z"/><path class="cls-1" d="M354.82,121.29A21.08,21.08,0,0,1,344,118.6a18.18,18.18,0,0,1-7-7.51,24,24,0,0,1-2.48-11.19,24.28,24.28,0,0,1,2.49-11.24,18.21,18.21,0,0,1,7.07-7.5,23.34,23.34,0,0,1,21.72,0,18.12,18.12,0,0,1,7.05,7.51,24.15,24.15,0,0,1,2.48,11.24,24,24,0,0,1-2.49,11.19,18.06,18.06,0,0,1-7.07,7.49A21.08,21.08,0,0,1,354.82,121.29Zm.06-8.91a7.06,7.06,0,0,0,4.78-1.63,9.89,9.89,0,0,0,2.9-4.46,21.61,21.61,0,0,0,0-12.9,10.14,10.14,0,0,0-2.89-4.48,7.07,7.07,0,0,0-4.78-1.65,7.27,7.27,0,0,0-4.85,1.64,10,10,0,0,0-2.94,4.48,21.61,21.61,0,0,0,0,12.9,9.8,9.8,0,0,0,2.94,4.47A7.27,7.27,0,0,0,354.88,112.38Z"/><path class="cls-2" d="M385.65,121.21a6.5,6.5,0,0,1-6.48-6.49,6.49,6.49,0,0,1,6.49-6.42,6.36,6.36,0,0,1,4.53,1.9,6.27,6.27,0,0,1,1,7.79,7,7,0,0,1-2.36,2.34A6.15,6.15,0,0,1,385.65,121.21Z"/><path class="cls-2" d="M129.19,59.2a107.84,107.84,0,0,0-21.27-21C96,29.23,82.4,24,67.61,26.71,48.18,30.27,34.14,43,21.72,57.62c-2.8,3.31-1.41,5.41.87,8.06A109.66,109.66,0,0,0,36.78,79.83c11.11,8.93,22.8,16.35,38.46,15.61a40.93,40.93,0,0,0,13.47-1.77c17.17-5.54,29.48-17.36,40.8-30.55C130.57,61.88,130.37,60.76,129.19,59.2ZM74.67,86.79c-14.25-.4-25.74-11.72-25.59-25.44.17-14.92,11.43-26.09,25.93-26,12.85,0,25.77,10.09,25.6,25.86C101.23,74.52,88.4,87.18,74.67,86.79Z"/><rect class="cls-3" x="5.55" y="5.56" width="139" height="110"/><path class="cls-2" d="M82,72.66a11.12,11.12,0,1,1,5.48-20.78,15.71,15.71,0,1,0,0,19.33A11,11,0,0,1,82,72.66Z"/></svg>