<svg id="Layer_1" data-name="Layer 1" xmlns="http://www.w3.org/2000/svg" viewBox="0 0 1422.42 362.63"><defs><style>.cls-1{fill:#fff;}</style></defs><path class="cls-1" d="M568.59,158.13V7.77H636.9q24.48,0,43.17,9.34a71.13,71.13,0,0,1,29.22,26.21Q719.81,60.18,719.82,83t-10.53,39.63a71.06,71.06,0,0,1-29.22,26.21q-18.68,9.35-43.17,9.34Zm35-28.35h31.58q15,0,26.1-5.69a41.13,41.13,0,0,0,17.18-16.33q6.12-10.64,6.12-24.81,0-14.39-6.12-24.92a41.38,41.38,0,0,0-17.18-16.22q-11.07-5.69-26.1-5.69H603.6Z"/><path class="cls-1" d="M751.39,158.13V7.77h65.09q20.19,0,34.8,6.55t22.55,18.79q7.95,12.26,7.95,29,0,17-7.95,29.11t-22.55,18.47Q836.67,116,816.48,116h-46l15.89-15v57.14Zm35-53.27L770.51,88.32h44q15.88,0,24.05-6.87t8.17-19.34q0-12.45-8.17-19.22t-24.05-6.77h-44L786.4,19.58Zm60.8,53.27-37.81-54.56h37.38l37.8,54.56Z"/><path class="cls-1" d="M949.23,130.21h81.85v27.92H914.64V7.77h113.64V35.69h-79Zm-2.58-62.08H1019V95.41H946.65Z"/><path class="cls-1" d="M1044.39,158.13,1111.2,7.77h34.37L1213,158.13H1176.5L1121.29,25.38h14l-55.21,132.75Zm33.73-32.22,8.8-26.42h77.77l9,26.42Z"/><path class="cls-1" d="M1234.07,158.13V7.77h35v122h75v28.35Z"/><path class="cls-1" d="M618.21,354.86a123.57,123.57,0,0,1-34.7-4.83q-16.63-4.83-26.74-12.56l11.82-26.21a82.35,82.35,0,0,0,22.77,11.28,85.17,85.17,0,0,0,26.85,4.4q10.31,0,16.64-2.15t9.35-5.69a12.41,12.41,0,0,0,3-8.27,11.33,11.33,0,0,0-4.73-9.56,38.75,38.75,0,0,0-12.56-5.8q-7.84-2.25-17.08-4.3t-18.58-4.94a74.91,74.91,0,0,1-17.19-7.73,36.33,36.33,0,0,1-12.46-12.67Q560,258,560,246.17a42.38,42.38,0,0,1,6.88-23.52q6.87-10.64,20.94-17t35.34-6.34a116.09,116.09,0,0,1,28,3.44,82.92,82.92,0,0,1,24.17,9.88l-11,26.21a87.27,87.27,0,0,0-20.84-8.7,78.75,78.75,0,0,0-20.62-2.9q-10.3,0-16.54,2.25t-9.13,6.12a14,14,0,0,0-2.9,8.6,11.6,11.6,0,0,0,4.73,9.66,34.57,34.57,0,0,0,12.46,5.7q7.73,2,17.18,4.08a188.28,188.28,0,0,1,18.69,5.05,82.68,82.68,0,0,1,17,7.62A36.64,36.64,0,0,1,677,288.81q4.83,7.85,4.83,19.44a41.11,41.11,0,0,1-7,23.2q-7,10.53-21.16,17T618.21,354.86Z"/><path class="cls-1" d="M740,352.29v-122H691.89V201.92h131v28.35H774.8v122Z"/><path class="cls-1" d="M911.21,354.86q-32,0-50.05-17.82t-18-51.13v-84h35v83.13q0,21.27,8.81,30.83t24.49,9.56q15.89,0,24.7-9.56t8.81-30.83V201.92h34.15v84q0,33.3-18,51.13T911.21,354.86Z"/><path class="cls-1" d="M1008.69,352.29V201.92H1077q24.48,0,43.17,9.34a71.13,71.13,0,0,1,29.22,26.21q10.51,16.86,10.52,39.63t-10.52,39.64a71.11,71.11,0,0,1-29.22,26.2q-18.69,9.35-43.17,9.35Zm35-28.36h31.58q15,0,26.1-5.69a41.07,41.07,0,0,0,17.18-16.33q6.12-10.62,6.12-24.81,0-14.39-6.12-24.91A41.25,41.25,0,0,0,1101.39,236q-11.07-5.7-26.1-5.7h-31.58Z"/><path class="cls-1" d="M1191.5,352.29V201.92h35V352.29Z"/><path class="cls-1" d="M1340.36,354.86a90.66,90.66,0,0,1-32.86-5.79,79.37,79.37,0,0,1-26.21-16.33A73.72,73.72,0,0,1,1264,308a81.4,81.4,0,0,1,0-62,74,74,0,0,1,17.29-24.59,79.59,79.59,0,0,1,26.1-16.33,89.64,89.64,0,0,1,32.76-5.8,91.4,91.4,0,0,1,32.76,5.69,78.55,78.55,0,0,1,26.1,16.22A73.86,73.86,0,0,1,1416.3,246a82.05,82.05,0,0,1,0,62.19A73.41,73.41,0,0,1,1399,333a78.23,78.23,0,0,1-26.1,16.22A90.58,90.58,0,0,1,1340.36,354.86Zm-.21-29.42a47.8,47.8,0,0,0,18.58-3.55,45.05,45.05,0,0,0,14.93-10.09,46.69,46.69,0,0,0,10-15.26,55.15,55.15,0,0,0,0-38.88,46.65,46.65,0,0,0-10-15.25,45.23,45.23,0,0,0-14.93-10.1,47.79,47.79,0,0,0-18.58-3.54,48.56,48.56,0,0,0-18.69,3.54,43.74,43.74,0,0,0-14.93,10.1,47.33,47.33,0,0,0-9.88,15.25,55.15,55.15,0,0,0,0,38.88,47.38,47.38,0,0,0,9.88,15.26,43.58,43.58,0,0,0,14.93,10.09A48.57,48.57,0,0,0,1340.15,325.44Z"/><path class="cls-1" d="M471.78,362.63H0V0H471.78Zm-435-36.79H435v-289H36.79Z"/><path class="cls-1" d="M235.89,87.16c-87.15,0-157.8,94.15-157.8,94.15s70.65,94.16,157.8,94.16,157.8-94.16,157.8-94.16S323,87.16,235.89,87.16Zm32.39,139.08a44.71,44.71,0,0,0,16.53-3.18,61.86,61.86,0,1,1,0-83.49,44.91,44.91,0,1,0-16.53,86.67Z"/></svg>