<svg id="Layer_1" data-name="Layer 1" xmlns="http://www.w3.org/2000/svg" viewBox="0 0 507.68 134.04"><path d="M192.08,58.32V2.74h25.25a35.17,35.17,0,0,1,16,3.46,26.35,26.35,0,0,1,10.8,9.68A27.14,27.14,0,0,1,248,30.53a27.12,27.12,0,0,1-3.89,14.65,26.31,26.31,0,0,1-10.8,9.69,35.3,35.3,0,0,1-16,3.45ZM205,47.84h11.67a20.87,20.87,0,0,0,9.65-2.1,15.17,15.17,0,0,0,6.35-6A18,18,0,0,0,235,30.53a18,18,0,0,0-2.26-9.21,15.24,15.24,0,0,0-6.35-6,20.87,20.87,0,0,0-9.65-2.11H205Z"/><path d="M259.65,58.32V2.74h24.06a31.33,31.33,0,0,1,12.86,2.42,18.87,18.87,0,0,1,8.34,7,19.32,19.32,0,0,1,2.93,10.72,19.27,19.27,0,0,1-2.93,10.76,18.45,18.45,0,0,1-8.34,6.83,32.21,32.21,0,0,1-12.86,2.34h-17l5.88-5.56V58.32Zm12.94-19.69-5.88-6.11H283q5.88,0,8.89-2.54a8.82,8.82,0,0,0,3-7.15,8.7,8.7,0,0,0-3-7.11c-2-1.66-5-2.5-8.89-2.5H266.71l5.88-6.11Zm22.47,19.69-14-20.16H294.9l14,20.16Z"/><path d="M332.77,48H363V58.32H320V2.74h42V13.06H332.77Zm-.95-22.95h26.76V35.14H331.82Z"/><path d="M368,58.32,392.64,2.74h12.7l24.94,55.58h-13.5L396.37,9.25h5.16l-20.4,49.07Zm12.46-11.91,3.26-9.76h28.74l3.34,9.76Z"/><path d="M438.06,58.32V2.74H451v45.1h27.71V58.32Z"/><path d="M210.42,131a45.75,45.75,0,0,1-12.82-1.79,30,30,0,0,1-9.89-4.64l4.37-9.69a30.1,30.1,0,0,0,8.42,4.17,31.57,31.57,0,0,0,9.92,1.63,19.55,19.55,0,0,0,6.15-.8,7.69,7.69,0,0,0,3.46-2.1,4.58,4.58,0,0,0,1.11-3.06,4.17,4.17,0,0,0-1.75-3.53,14.42,14.42,0,0,0-4.64-2.15c-1.93-.55-4-1.08-6.31-1.58s-4.57-1.11-6.87-1.83a27.79,27.79,0,0,1-6.36-2.86,13.47,13.47,0,0,1-4.6-4.68,14.12,14.12,0,0,1-1.71-7.27,15.71,15.71,0,0,1,2.54-8.69,17.41,17.41,0,0,1,7.75-6.27,31.85,31.85,0,0,1,13.06-2.35,43.27,43.27,0,0,1,10.36,1.27,30.74,30.74,0,0,1,8.93,3.66l-4,9.68a32.08,32.08,0,0,0-7.7-3.21,29,29,0,0,0-7.62-1.07,18.35,18.35,0,0,0-6.12.83A7.06,7.06,0,0,0,202.68,87a5.13,5.13,0,0,0-1.07,3.18,4.3,4.3,0,0,0,1.74,3.57A13,13,0,0,0,208,95.83q2.85.75,6.35,1.5t6.91,1.87a30.59,30.59,0,0,1,6.27,2.82,12.89,12.89,0,0,1,6.43,11.79,15.17,15.17,0,0,1-2.58,8.57,18,18,0,0,1-7.82,6.28A31.79,31.79,0,0,1,210.42,131Z"/><path d="M255.44,130.09V85H237.65V74.51h48.44V85H268.3v45.1Z"/><path d="M318.72,131q-11.84,0-18.5-6.59t-6.67-18.9v-31h12.94v30.72q0,7.86,3.26,11.4t9.05,3.53q5.88,0,9.13-3.53t3.26-11.4V74.51h12.62v31q0,12.32-6.67,18.9T318.72,131Z"/><path d="M354.75,130.09V74.51H380A35.24,35.24,0,0,1,396,78a26.18,26.18,0,0,1,10.8,9.69,27.12,27.12,0,0,1,3.89,14.65A27.14,27.14,0,0,1,406.76,117a26.23,26.23,0,0,1-10.8,9.68,35.24,35.24,0,0,1-16,3.46Zm12.95-10.48h11.67A20.83,20.83,0,0,0,389,117.5a15.17,15.17,0,0,0,6.36-6,19.81,19.81,0,0,0,0-18.38,15.22,15.22,0,0,0-6.36-6,20.83,20.83,0,0,0-9.64-2.1H367.7Z"/><path d="M422.32,130.09V74.51h12.94v55.58Z"/><path d="M477.35,131a33.43,33.43,0,0,1-12.15-2.15,29.21,29.21,0,0,1-9.69-6,27.31,27.31,0,0,1-6.39-9.13,30.16,30.16,0,0,1,0-22.91,27.55,27.55,0,0,1,6.39-9.09,29.5,29.5,0,0,1,9.65-6,33.14,33.14,0,0,1,12.11-2.15,33.75,33.75,0,0,1,12.1,2.11,28.92,28.92,0,0,1,9.65,6,27.41,27.41,0,0,1,6.39,9.13,30.24,30.24,0,0,1,0,23,27.17,27.17,0,0,1-6.39,9.17,28.92,28.92,0,0,1-9.65,6A33.33,33.33,0,0,1,477.35,131Zm-.08-10.88a17.69,17.69,0,0,0,6.86-1.31,16.73,16.73,0,0,0,5.52-3.73,17,17,0,0,0,3.69-5.64,20.36,20.36,0,0,0,0-14.37,17.23,17.23,0,0,0-3.69-5.64,16.73,16.73,0,0,0-5.52-3.73,17.69,17.69,0,0,0-6.86-1.31,18,18,0,0,0-6.91,1.31,16.14,16.14,0,0,0-5.52,3.73,17.62,17.62,0,0,0-3.65,5.64,20.36,20.36,0,0,0,0,14.37,17.4,17.4,0,0,0,3.65,5.64,16.14,16.14,0,0,0,5.52,3.73A18,18,0,0,0,477.27,120.16Z"/><path d="M174.38,134H0V0H174.38ZM13.6,120.44H160.78V13.6H13.6Z"/><path d="M87.19,32.22C55,32.22,28.86,67,28.86,67s26.12,34.8,58.33,34.8S145.52,67,145.52,67,119.4,32.22,87.19,32.22Zm12,51.4a16.53,16.53,0,0,0,6.11-1.17,22.87,22.87,0,1,1,0-30.86,16.6,16.6,0,1,0-6.11,32Z"/></svg>