<?xml version="1.0" encoding="UTF-8"?>
<svg id="Layer_2" data-name="Layer 2" xmlns="http://www.w3.org/2000/svg" viewBox="0 0 295.89 297.09">
  <defs>
    <style>
      .cls-1 {
        fill: #fff;
        stroke-width: 0px;
      }
    </style>
  </defs>
  <g id="Layer_1-2" data-name="Layer 1">
    <g>
      <path class="cls-1" d="m153.34,129.92v12.4h12.1c28.13.08,56.26.08,84.38,0v.06l12.44-.04-.23-24.01h-12.16c-.11,0-.21-.02-.32-.02-15.95-.06-31.91-.02-47.86-.02-2.08,0-4.16,0-7.4,0,2.18-2.05,3.57-3.29,4.89-4.61,30.32-30.31,60.64-60.64,90.96-90.96.97-.97,2-1.9,2.85-2.96,3.15-3.96,3.8-8.38,1.64-12.92-2.24-4.7-6.15-6.96-11.43-6.83-3.92.1-6.71,2.2-9.33,4.83-31.01,31.04-62.03,62.07-93.08,93.07-.92.91-1.58,2.22-3.38,2.59,0-1.33,0-2.53,0-3.72,0-16.95.07-33.91-.05-50.86v-12.21h-24.05l.04,12.44c-.05,27.92-.05,55.85,0,83.77Z"/>
      <path class="cls-1" d="m142.55,167.17v-12.4h-12.1c-28.13-.08-56.26-.08-84.38,0v-.06l-12.44.04.23,24.01h12.16c.11,0,.21.02.32.02,15.95.06,31.91.02,47.86.02,2.08,0,4.16,0,7.4,0-2.18,2.05-3.57,3.29-4.89,4.61-30.32,30.31-60.64,60.64-90.96,90.96-.97.97-2,1.9-2.85,2.96-3.15,3.96-3.8,8.38-1.64,12.92,2.24,4.7,6.15,6.96,11.43,6.83,3.92-.1,6.71-2.2,9.33-4.83,31.01-31.04,62.03-62.07,93.08-93.07.92-.91,1.58-2.22,3.38-2.59,0,1.33,0,2.53,0,3.72,0,16.95-.07,33.91.05,50.86v12.21h24.05l-.04-12.44c.05-27.92.05-55.85,0-83.77Z"/>
    </g>
  </g>
</svg>