<svg width="68" height="61" viewBox="0 0 68 61" fill="none" xmlns="http://www.w3.org/2000/svg">
<path d="M24.4478 20.375C27.3996 20.375 29.7922 17.9587 29.7922 14.9781C29.7922 11.9975 27.3996 9.58124 24.4478 9.58124C21.496 9.58124 19.103 11.9975 19.103 14.9781C19.103 17.9587 21.496 20.375 24.4478 20.375Z" stroke="white" stroke-width="3" stroke-miterlimit="10"/>
<path d="M29.4587 16.8481L42.1974 21.2825" stroke="white" stroke-width="2" stroke-miterlimit="10"/>
<path d="M45.3906 26.59C47.5339 26.59 49.2716 24.8355 49.2716 22.6713C49.2716 20.507 47.5339 18.7525 45.3906 18.7525C43.2473 18.7525 41.5096 20.507 41.5096 22.6713C41.5096 24.8355 43.2473 26.59 45.3906 26.59Z" stroke="white" stroke-width="2" stroke-miterlimit="10"/>
<path d="M42.8783 25.6481L26.8578 35.7681" stroke="white" stroke-width="2" stroke-miterlimit="10"/>
<path d="M24.1004 41.1925C25.9768 41.1925 27.498 39.6565 27.498 37.7619C27.498 35.8672 25.9768 34.3312 24.1004 34.3312C22.224 34.3312 20.7031 35.8672 20.7031 37.7619C20.7031 39.6565 22.224 41.1925 24.1004 41.1925Z" stroke="white" stroke-width="2" stroke-miterlimit="10"/>
<path d="M26.3813 40.2988L35.995 47.5244" stroke="white" stroke-width="2" stroke-miterlimit="10"/>
<path d="M37.7786 51.6425C39.1361 51.6425 40.2367 50.5314 40.2367 49.1606C40.2367 47.7899 39.1361 46.6787 37.7786 46.6787C36.4212 46.6787 35.3208 47.7899 35.3208 49.1606C35.3208 50.5314 36.4212 51.6425 37.7786 51.6425Z" stroke="white" stroke-miterlimit="10"/>
</svg>
