<svg xmlns="http://www.w3.org/2000/svg" width="47" height="64" viewBox="0 0 47 64" fill="none">
<path d="M9.47021 18C13.8057 18 17.3198 14.4854 17.3198 10.15C17.3198 5.81454 13.8057 2.29999 9.47021 2.29999C5.13478 2.29999 1.62012 5.81454 1.62012 10.15C1.62012 14.4854 5.13478 18 9.47021 18Z" stroke="white" stroke-width="3" stroke-miterlimit="10"/>
<path d="M16.8301 12.87L35.54 19.32" stroke="white" stroke-width="2" stroke-miterlimit="10"/>
<path d="M40.23 27.04C43.378 27.04 45.9302 24.488 45.9302 21.34C45.9302 18.192 43.378 15.64 40.23 15.64C37.082 15.64 34.5298 18.192 34.5298 21.34C34.5298 24.488 37.082 27.04 40.23 27.04Z" stroke="white" stroke-width="2" stroke-miterlimit="10"/>
<path d="M36.54 25.67L13.0098 40.39" stroke="white" stroke-width="2" stroke-miterlimit="10"/>
<path d="M8.95996 48.28C11.7159 48.28 13.9502 46.0459 13.9502 43.29C13.9502 40.5341 11.7159 38.3 8.95996 38.3C6.20406 38.3 3.97021 40.5341 3.97021 43.29C3.97021 46.0459 6.20406 48.28 8.95996 48.28Z" stroke="white" stroke-width="2" stroke-miterlimit="10"/>
<path d="M12.3101 46.98L26.4302 57.49" stroke="white" stroke-width="2" stroke-miterlimit="10"/>
<path d="M29.0498 63.48C31.0436 63.48 32.6602 61.8638 32.6602 59.87C32.6602 57.8763 31.0436 56.26 29.0498 56.26C27.0561 56.26 25.4399 57.8763 25.4399 59.87C25.4399 61.8638 27.0561 63.48 29.0498 63.48Z" stroke="white" stroke-miterlimit="10"/>
</svg>