<svg xmlns="http://www.w3.org/2000/svg" width="1100" height="1100" viewBox="0 0 1100 1100" fill="none">
<path d="M513.978 0.296014C511.613 0.511036 504.086 1.26361 497.312 1.80117C341.075 15.8851 194.731 100.174 102.043 229.725C50.4301 301.757 17.4194 383.466 4.94624 470.012C0.537634 500.223 0 509.146 0 550.108C0 591.069 0.537634 599.993 4.94624 630.203C34.8387 836.732 181.828 1010.26 381.183 1074.55C416.882 1086.05 454.516 1093.9 497.312 1098.63C513.978 1100.46 586.022 1100.46 602.688 1098.63C676.559 1090.46 739.14 1072.18 800.86 1040.68C810.323 1035.84 812.151 1034.55 810.86 1033.48C810 1032.83 769.677 978.754 721.29 913.388L633.333 794.588L523.118 631.494C462.473 541.829 412.581 468.507 412.151 468.507C411.72 468.399 411.29 540.862 411.075 629.343C410.753 784.267 410.645 790.502 408.71 794.158C405.914 799.426 403.763 801.576 399.247 803.941C395.806 805.662 392.796 805.984 376.559 805.984H357.957L353.011 802.866C349.785 800.824 347.419 798.136 345.806 795.018L343.548 790.18L343.763 574.62L344.086 358.953L347.419 354.76C349.14 352.502 352.796 349.6 355.376 348.202C359.785 346.052 361.505 345.837 380.108 345.837C402.043 345.837 405.699 346.697 411.398 352.932C413.011 354.653 472.688 444.532 544.086 552.795C615.484 661.059 713.118 808.887 761.075 881.457L848.172 1013.37L852.581 1010.47C891.613 985.098 932.903 948.974 965.591 911.345C1035.16 831.464 1080 734.059 1095.05 630.203C1099.46 599.993 1100 591.069 1100 550.108C1100 509.146 1099.46 500.223 1095.05 470.012C1065.16 263.483 918.172 89.9603 718.817 25.6686C683.656 14.2725 646.237 6.42415 604.301 1.69366C593.979 0.618547 522.903 -0.564075 513.978 0.296014ZM739.14 332.935C744.301 335.516 748.495 340.461 750 345.622C750.86 348.417 751.075 408.193 750.86 542.904L750.538 736.209L716.452 683.959L682.258 631.709V491.192C682.258 400.345 682.688 349.277 683.333 346.804C685.054 340.784 688.817 336.053 693.978 333.258C698.387 331 700 330.785 716.882 330.785C732.796 330.785 735.591 331 739.14 332.935Z" fill="white"/>
</svg>