<svg xmlns="http://www.w3.org/2000/svg" width="66" height="85" viewBox="0 0 66 85" fill="none">
  <path d="M3 62.45L22.73 82.19L30.0298 74.89L31.7202 77.94C32.0778 78.5847 32.5908 79.13 33.2124 79.5264C33.8341 79.9228 34.5444 80.1577 35.2798 80.21C36.0361 80.2631 36.7956 80.1554 37.5073 79.894C38.2191 79.6327 38.8669 79.2235 39.4092 78.6936C39.9514 78.1636 40.3757 77.5248 40.6533 76.8193C40.9309 76.1137 41.0558 75.3574 41.02 74.6C40.9805 73.7793 40.7221 72.984 40.272 72.2965C39.8219 71.6091 39.1964 71.0544 38.46 70.69L35.9199 69.43L62.9199 42.43L55.9199 35.43L58.4502 34.04C59.2718 33.5871 59.9519 32.9159 60.416 32.1006C60.8801 31.2853 61.11 30.3576 61.0801 29.42C61.062 28.7624 60.9143 28.1149 60.6455 27.5145C60.3767 26.9141 59.9921 26.3727 59.5137 25.9212C59.0353 25.4698 58.4724 25.1171 57.8574 24.8835C57.2425 24.65 56.5877 24.54 55.9302 24.56C54.9897 24.5864 54.0714 24.8542 53.2642 25.3375C52.4569 25.8208 51.7873 26.5035 51.3198 27.32L50.1001 29.47L43.1001 22.42L36.1001 15.42L35.0298 17.2C34.4848 18.101 33.7201 18.8489 32.8071 19.3737C31.8941 19.8984 30.863 20.1827 29.8101 20.2C29.2429 20.2112 28.6792 20.1066 28.1538 19.8926C27.6285 19.6786 27.1527 19.3596 26.7549 18.9553C26.357 18.5509 26.0457 18.0696 25.8403 17.5408C25.6349 17.012 25.5395 16.4469 25.5601 15.88C25.5861 14.8175 25.9267 13.7865 26.5391 12.9178C27.1514 12.0491 28.008 11.3817 29 11L31.0898 10.24L23.3398 2.48999L16.02 9.81999L14.9502 7.81999C14.4124 6.82483 13.6105 5.99699 12.6333 5.42723C11.6561 4.85747 10.5411 4.5678 9.41016 4.58998C8.24538 4.60551 7.13229 5.07513 6.30859 5.89882C5.4849 6.72251 5.01553 7.83521 5 8.99998C4.97453 9.8529 5.17156 10.6978 5.57129 11.4517C5.97102 12.2055 6.55949 12.8425 7.27979 13.3L10.4199 15.3L3.27002 22.45L23.1499 42.33L15.96 49.52L14.8799 47.65C14.2882 46.6225 13.4312 45.7731 12.3984 45.1908C11.3657 44.6084 10.1951 44.3145 9.00977 44.34C8.49495 44.3504 7.98725 44.4621 7.51562 44.6688C7.044 44.8754 6.61783 45.173 6.26123 45.5445C5.90463 45.9159 5.62475 46.354 5.4375 46.8336C5.25025 47.3133 5.15931 47.8252 5.16992 48.34C5.20211 49.3893 5.48143 50.4162 5.98535 51.3371C6.48927 52.2581 7.20346 53.0471 8.06982 53.64L10.2798 55.16L3 62.45Z" stroke="white" stroke-width="3" stroke-miterlimit="10"/>
  <path d="M43.52 62.6701L36.23 55.3701L35.5801 56.4401C34.8769 57.5805 33.8985 58.5261 32.7349 59.19C31.5712 59.854 30.2594 60.215 28.9199 60.2401C28.4113 60.2496 27.906 60.1565 27.4341 59.9665C26.9621 59.7765 26.5331 59.4934 26.1729 59.1342C25.8126 58.7749 25.5286 58.3468 25.3374 57.8753C25.1462 57.4039 25.0519 56.8988 25.0601 56.3901C25.0739 55.1517 25.4067 53.9377 26.0269 52.8657C26.647 51.7936 27.5335 50.8996 28.6001 50.2701L30.1899 49.3401L23.1899 42.2901L30.27 34.9301L31.1401 36.8601C31.5985 37.8873 32.3612 38.7489 33.3252 39.3283C34.2892 39.9078 35.4077 40.1772 36.5298 40.1001H37.0801C38.1811 40.0265 39.213 39.5373 39.9668 38.7315C40.7206 37.9257 41.1401 36.8635 41.1401 35.7601C41.1452 34.7067 40.8699 33.6709 40.3428 32.7589C39.8156 31.8469 39.0555 31.0915 38.1401 30.5701L35.96 29.3501L42.96 22.3501" stroke="white" stroke-width="3" stroke-miterlimit="10"/>
</svg>