<svg width="68" height="61" viewBox="0 0 68 61" fill="none" xmlns="http://www.w3.org/2000/svg">
<g clip-path="url(#clip0_14_25)">
<path d="M18.7273 41.7965L30.087 52.4793L34.2899 48.5287L35.2632 50.1793C35.4691 50.5282 35.7644 50.8233 36.1223 51.0378C36.4803 51.2523 36.8892 51.3795 37.3126 51.4078C37.7481 51.4365 38.1854 51.3782 38.5951 51.2368C39.005 51.0953 39.3779 50.8739 39.6902 50.5871C40.0023 50.3003 40.2466 49.9546 40.4065 49.5728C40.5663 49.1909 40.6382 48.7817 40.6176 48.3718C40.5949 47.9276 40.4461 47.4972 40.1869 47.1252C39.9278 46.7532 39.5676 46.453 39.1437 46.2558L37.6812 45.5739L53.2266 30.9621L49.1963 27.1739L50.6532 26.4217C51.1262 26.1766 51.5178 25.8133 51.785 25.3721C52.0522 24.9309 52.1846 24.4288 52.1674 23.9214C52.1569 23.5655 52.0719 23.2151 51.9171 22.8902C51.7624 22.5653 51.5409 22.2723 51.2655 22.028C50.99 21.7837 50.6659 21.5928 50.3119 21.4664C49.9578 21.34 49.5808 21.2805 49.2023 21.2913C48.6608 21.3056 48.132 21.4505 47.6673 21.7121C47.2025 21.9736 46.817 22.3431 46.5478 22.785L45.8455 23.9485L41.8152 20.1332L37.7849 16.345L37.1687 17.3082C36.8549 17.7958 36.4146 18.2006 35.889 18.4846C35.3633 18.7686 34.7696 18.9224 34.1634 18.9318C33.8368 18.9378 33.5123 18.8812 33.2098 18.7654C32.9073 18.6496 32.6334 18.477 32.4044 18.2582C32.1753 18.0393 31.996 17.7789 31.8778 17.4927C31.7595 17.2065 31.7046 16.9007 31.7164 16.5939C31.7314 16.0189 31.9275 15.4609 32.2801 14.9908C32.6326 14.5207 33.1258 14.1595 33.697 13.953L34.9002 13.5417L30.4381 9.34753L26.2237 13.3144L25.6077 12.232C25.2981 11.6934 24.8364 11.2454 24.2737 10.9371C23.7111 10.6288 23.0691 10.472 22.418 10.484C21.7474 10.4924 21.1065 10.7466 20.6322 11.1923C20.158 11.6381 19.8878 12.2402 19.8788 12.8706C19.8641 13.3322 19.9776 13.7894 20.2077 14.1974C20.4379 14.6053 20.7767 14.9501 21.1914 15.1977L22.9994 16.28L18.8828 20.1494L30.3288 30.908L26.1891 34.7991L25.5672 33.7871C25.2266 33.231 24.7331 32.7713 24.1385 32.4562C23.5439 32.141 22.8699 31.982 22.1875 31.9958C21.8911 32.0014 21.5987 32.0619 21.3272 32.1737C21.0557 32.2855 20.8103 32.4466 20.605 32.6476C20.3997 32.8486 20.2385 33.0857 20.1307 33.3453C20.0229 33.6049 19.9705 33.8819 19.9766 34.1605C19.9952 34.7283 20.156 35.2841 20.4461 35.7824C20.7363 36.2809 21.1475 36.7079 21.6463 37.0287L22.9187 37.8513L18.7273 41.7965Z" stroke="white" stroke-width="2" stroke-miterlimit="10"/>
<path d="M42.057 41.9156L37.8597 37.965L37.4855 38.544C37.0806 39.1612 36.5173 39.6729 35.8474 40.0322C35.1773 40.3916 34.4221 40.5869 33.6508 40.6005C33.358 40.6057 33.0671 40.5553 32.7954 40.4524C32.5236 40.3496 32.2766 40.1964 32.0692 40.002C31.8618 39.8076 31.6983 39.5759 31.5882 39.3207C31.4781 39.0656 31.4238 38.7923 31.4285 38.517C31.4365 37.8468 31.6281 37.1898 31.9852 36.6097C32.3422 36.0295 32.8526 35.5457 33.4667 35.205L34.382 34.7017L30.3517 30.8864L34.4282 26.9033L34.9291 27.9478C35.1931 28.5037 35.6322 28.97 36.1872 29.2835C36.7423 29.5972 37.3862 29.7429 38.0323 29.7012H38.3491C38.983 29.6614 39.5772 29.3966 40.0112 28.9606C40.4452 28.5245 40.6867 27.9496 40.6867 27.3525C40.6896 26.7824 40.5311 26.2219 40.2277 25.7283C39.9241 25.2348 39.4865 24.826 38.9594 24.5438L37.7042 23.8836L41.7345 20.0953" stroke="white" stroke-width="2" stroke-miterlimit="10"/>
</g>
<defs>
<clipPath id="clip0_14_25">
<rect width="38" height="46" fill="white" transform="translate(17 8)"/>
</clipPath>
</defs>
</svg>
