<svg width="1043" height="931" viewBox="0 0 1043 931" fill="none" xmlns="http://www.w3.org/2000/svg">
<path d="M617 464.5C617 517.241 574.241 560 521.5 560C468.759 560 426 517.241 426 464.5C426 411.759 468.759 369 521.5 369C574.241 369 617 411.759 617 464.5Z" fill="white"/>
<path d="M521.5 815.277C596.319 887.992 670.062 931 729.502 931C748.984 931 767.43 926.898 782.768 917.699C836.033 886.957 855.515 810.14 837.069 700.55C834.002 681.077 829.898 661.644 824.759 641.135C845.236 635.003 863.682 628.83 882.128 622.698C985.631 582.756 1043 527.443 1043 467.033C1043 405.588 985.631 350.275 882.128 311.369C863.682 304.201 845.236 298.068 824.759 292.931C829.898 272.463 834.002 252.99 837.069 233.517C854.479 121.895 835.037 44.0432 781.732 13.3006C766.354 4.10168 747.908 0 728.467 0C670.062 0 595.243 43.0078 520.464 115.723C446.681 43.0078 372.898 0 313.498 0C294.016 0 275.57 4.10168 260.232 13.3006C206.967 44.0432 187.485 120.86 205.931 230.45C208.998 249.923 213.102 269.356 218.241 289.865C197.764 295.997 179.318 302.17 160.872 308.302C57.369 348.244 0 403.557 0 463.967C0 525.412 57.369 580.725 160.872 619.631C179.318 626.799 197.764 632.932 218.241 638.069C213.102 658.538 208.998 678.011 205.931 697.484C188.521 807.074 207.963 884.926 260.232 914.633C275.61 923.872 294.056 927.934 313.498 927.934C372.938 929.965 446.721 886.957 521.5 815.277ZM464.091 677.015C482.537 678.05 502.018 678.05 521.46 678.05C540.902 678.05 560.383 678.05 578.829 677.015C560.383 701.585 540.902 724.124 521.46 745.628C501.979 724.124 482.537 701.585 464.091 677.015ZM337.043 571.526C347.282 588.929 356.524 605.335 367.799 621.702C336.047 617.6 306.326 612.463 277.642 606.331C286.885 578.694 297.124 549.982 309.394 521.311C317.601 537.677 326.804 555.12 337.043 571.486V571.526ZM277.602 324.669C306.287 318.537 336.007 313.4 367.759 309.298C357.52 325.705 347.282 342.072 337.003 359.474C326.724 376.876 317.521 393.283 309.354 410.685C296.048 380.978 285.769 352.346 277.602 324.669ZM333.975 465.002C347.282 437.366 361.624 409.689 378.038 382.053C393.416 355.412 410.826 328.811 428.236 302.17C458.992 300.139 489.708 299.104 521.5 299.104C554.288 299.104 585.044 300.139 614.764 302.17C633.21 328.811 649.584 355.412 664.962 382.053C681.376 409.689 695.718 437.366 709.025 465.002C695.718 492.639 681.376 520.315 664.962 547.952C649.584 574.593 632.174 601.194 614.764 627.835C584.008 629.866 553.292 630.901 521.5 630.901C488.712 630.901 457.956 629.866 428.236 627.835C409.79 601.194 393.416 574.593 378.038 547.952C361.624 520.275 347.282 492.639 333.975 465.002ZM734.642 409.689L706.993 358.478C696.754 341.076 687.511 324.669 676.237 308.302C707.989 312.404 737.709 317.541 766.394 323.674C757.191 352.346 746.912 380.978 734.642 409.689ZM734.642 520.315C746.952 548.987 757.191 577.659 766.394 605.335C737.709 611.468 707.989 616.605 676.237 620.706C686.476 604.3 696.714 587.933 706.993 570.531C716.236 555.159 725.439 537.757 734.642 520.355V520.315ZM758.187 875.727C749.98 880.864 739.741 882.895 728.467 882.895C678.269 882.895 615.76 841.918 554.288 780.473C584.008 748.734 612.693 712.855 641.377 672.913C689.543 668.812 735.638 661.644 778.704 651.409C783.844 669.847 786.911 688.285 789.979 706.722C804.321 793.773 793.007 856.254 758.187 875.727ZM811.492 335.939C926.27 368.713 994.914 418.888 994.914 465.002C994.914 504.944 947.783 544.885 864.798 576.663C848.384 582.796 829.978 588.968 811.532 594.066C798.226 552.053 781.812 509.045 761.334 465.002C781.812 420.959 799.222 377.951 811.492 335.939ZM729.502 47.1095C740.777 47.1095 749.98 49.1404 759.223 54.2775C793.047 73.7505 805.317 135.196 790.975 223.282C787.907 240.685 783.804 259.122 779.7 278.595C736.674 269.356 690.539 262.188 642.373 257.091C614.725 217.15 585.004 181.31 555.284 149.532C616.756 89.0819 679.305 47.1095 729.502 47.1095ZM578.869 252.99C560.423 251.954 540.942 251.954 521.5 251.954C502.058 251.954 482.577 251.954 464.131 252.99C482.577 228.419 502.058 205.88 521.5 184.376C540.982 205.88 560.423 229.455 578.869 252.99ZM284.773 54.2775C292.98 49.1404 303.219 47.1095 314.494 47.1095C364.691 47.1095 427.2 88.0864 488.672 149.532C458.952 181.27 430.267 217.11 401.583 257.091C353.417 261.193 307.322 268.361 264.256 278.595C259.117 260.158 256.049 241.72 252.981 223.282C238.639 136.231 249.953 74.7858 284.773 54.2775ZM231.508 594.066C116.73 561.292 48.0864 511.116 48.0864 465.002C48.0864 425.061 95.2166 385.119 178.202 353.381C194.616 347.248 213.022 341.076 231.468 335.979C244.774 377.991 261.188 420.999 281.666 465.042C261.188 509.085 243.739 553.129 231.468 594.105L231.508 594.066ZM253.021 706.722C256.089 689.32 260.192 670.882 264.296 651.409C307.322 660.648 353.457 667.816 401.623 672.913C429.271 712.855 458.992 748.695 488.712 780.473C427.24 840.883 364.731 882.895 314.533 882.895C303.259 882.895 294.056 880.864 284.813 875.727C249.953 856.254 238.719 793.773 253.061 706.722H253.021Z" fill="white"/>
</svg>
