<svg xmlns="http://www.w3.org/2000/svg" width="944" height="956" viewBox="0 0 944 956" fill="none">
<path d="M416 770.175L244.5 936L186.719 704.5M416 770.175L244.5 81.2253M416 770.175L186.719 704.5M416 770.175L587 604.833M244.5 81.2253L14.5 14.5L72.4056 246.5M244.5 81.2253L72.4056 246.5M244.5 81.2253L472.75 147.443M72.4056 246.5L758 439.491M72.4056 246.5L129.562 475.5M758 439.491L924.5 278.5L701 213.66M758 439.491L701 213.66M758 439.491L587 604.833M701 213.66L186.719 704.5M701 213.66L472.75 147.443M186.719 704.5L129.562 475.5M587 604.833L129.562 475.5M587 604.833L472.75 147.443M129.562 475.5L472.75 147.443" stroke="white" stroke-width="20"/>
</svg>