<svg width="150" height="135" viewBox="0 0 150 135" fill="none" xmlns="http://www.w3.org/2000/svg">
<path d="M43.0823 120.776V91.6412C43.0823 91.3606 43.0276 91.0826 42.9209 90.823L31.6378 62.9691L46.4089 63.1521C46.8689 63.1523 47.3169 63.2998 47.6869 63.573C48.057 63.8462 48.3298 64.2307 48.4655 64.6702L51.1571 73.0038C51.2924 73.4506 51.5694 73.8414 51.9461 74.1171C52.3229 74.3929 52.7789 74.5387 53.2457 74.5327H65.0887" stroke="white" stroke-width="3" stroke-miterlimit="10"/>
<path d="M90.6697 120.776C90.6697 120.54 91.929 111.011 92.5212 107.199C92.5885 106.747 92.7981 106.328 93.1194 106.003C93.4408 105.678 93.8573 105.463 94.3086 105.391L109.877 102.365C110.341 102.273 110.764 102.033 111.082 101.682C111.4 101.331 111.596 100.888 111.642 100.416L112.439 91.9104C112.483 91.4583 112.663 91.0303 112.956 90.683L114.226 89.1972C114.565 88.8143 114.756 88.3236 114.766 87.8127C114.776 87.3019 114.603 86.8042 114.28 86.4085L114.011 86.064C113.826 85.8397 113.688 85.5802 113.607 85.3012C113.525 85.0222 113.5 84.7295 113.534 84.4408C113.568 84.152 113.66 83.8732 113.805 83.6211C113.95 83.369 114.145 83.1488 114.377 82.9739C114.7 82.7267 114.945 82.3933 115.086 82.0123C115.227 81.6312 115.257 81.2181 115.174 80.8205L114.678 78.0427C114.588 77.5821 114.651 77.1045 114.857 76.6828C115.063 76.261 115.401 75.9181 115.82 75.7063L119.965 73.5529C120.226 73.4226 120.458 73.2406 120.646 73.018C120.835 72.7954 120.976 72.5368 121.061 72.2579C121.147 71.979 121.175 71.6856 121.144 71.3955C121.113 71.1054 121.023 70.8248 120.88 70.5705L111.858 54.1402C111.858 54.1402 117.058 29.6564 90.6697 16.0147V29.904" stroke="white" stroke-width="3" stroke-miterlimit="10"/>
<path d="M75.7263 13C75.7263 13.5383 75.7263 32.8326 75.7263 39.4219C75.7263 39.993 75.9528 40.5407 76.3566 40.9446C76.7604 41.3484 77.3085 41.5753 77.8796 41.5753H82.5194C83.0905 41.5753 83.6386 41.8022 84.0424 42.206C84.4462 42.6098 84.6727 43.1575 84.6727 43.7287V56.9073" stroke="white" stroke-width="3" stroke-miterlimit="10"/>
<path d="M33.6512 32.3373H62.9033C63.4744 32.3373 64.0219 32.5642 64.4257 32.968C64.8296 33.3719 65.0566 33.9196 65.0566 34.4907V50.5118" stroke="white" stroke-width="3" stroke-miterlimit="10"/>
<path d="M28.9999 47.4971H44.385" stroke="white" stroke-width="3" stroke-miterlimit="10"/>
<path d="M46.8616 20.6122H62.9033C63.4744 20.6122 64.0219 20.3853 64.4257 19.9815C64.8296 19.5776 65.0566 19.0299 65.0566 18.4588V13.0754" stroke="white" stroke-width="3" stroke-miterlimit="10"/>
<path d="M68.9646 79.2486C71.5689 79.2486 73.6801 77.1372 73.6801 74.5327C73.6801 71.9282 71.5689 69.8168 68.9646 69.8168C66.3602 69.8168 64.249 71.9282 64.249 74.5327C64.249 77.1372 66.3602 79.2486 68.9646 79.2486Z" stroke="white" stroke-width="3" stroke-miterlimit="10"/>
<path d="M84.9314 65.9192C87.5357 65.9192 89.6469 63.8078 89.6469 61.2033C89.6469 58.5988 87.5357 56.4874 84.9314 56.4874C82.327 56.4874 80.2158 58.5988 80.2158 61.2033C80.2158 63.8078 82.327 65.9192 84.9314 65.9192Z" stroke="white" stroke-width="3" stroke-miterlimit="10"/>
<path d="M65.0998 58.8238C67.7042 58.8238 69.8153 56.7124 69.8153 54.1079C69.8153 51.5034 67.7042 49.392 65.0998 49.392C62.4954 49.392 60.3843 51.5034 60.3843 54.1079C60.3843 56.7124 62.4954 58.8238 65.0998 58.8238Z" stroke="white" stroke-width="3" stroke-miterlimit="10"/>
<path d="M47.9813 52.213C50.5857 52.213 52.6968 50.1016 52.6968 47.4971C52.6968 44.8926 50.5857 42.7812 47.9813 42.7812C45.3769 42.7812 43.2653 44.8926 43.2653 47.4971C43.2653 50.1016 45.3769 52.213 47.9813 52.213Z" stroke="white" stroke-width="3" stroke-miterlimit="10"/>
</svg>
